<mxfile host="app.diagrams.net" modified="2023-05-16T09:05:38.294Z" agent="5.0 (Windows NT 10.0; Win64; x64) AppleWebKit/537.36 (KHTML, like Gecko) Chrome/113.0.0.0 Safari/537.36" etag="42ttIwEeq6_qnYhtKzqa" version="21.0.6" type="github">
  <diagram name="Trang-1" id="fzz1TU5L_gB-VumMzTC8">
    <mxGraphModel dx="1216" dy="506" grid="1" gridSize="10" guides="1" tooltips="1" connect="1" arrows="1" fold="1" page="1" pageScale="1" pageWidth="827" pageHeight="1169" math="0" shadow="0">
      <root>
        <mxCell id="0" />
        <mxCell id="1" parent="0" />
        <mxCell id="FU6x9-xHvtuPMo6TuXBD-1" value="CHAMCONG" style="whiteSpace=wrap;html=1;align=center;fillColor=#FFFF99;" vertex="1" parent="1">
          <mxGeometry x="70" y="160" width="100" height="40" as="geometry" />
        </mxCell>
        <mxCell id="FU6x9-xHvtuPMo6TuXBD-2" value="" style="fontSize=12;html=1;endArrow=ERoneToMany;rounded=0;entryX=0.5;entryY=1;entryDx=0;entryDy=0;exitX=0.5;exitY=0;exitDx=0;exitDy=0;" edge="1" parent="1" source="FU6x9-xHvtuPMo6TuXBD-3" target="FU6x9-xHvtuPMo6TuXBD-1">
          <mxGeometry width="100" height="100" relative="1" as="geometry">
            <mxPoint x="120" y="200" as="sourcePoint" />
            <mxPoint x="270" y="170" as="targetPoint" />
            <Array as="points" />
          </mxGeometry>
        </mxCell>
        <mxCell id="FU6x9-xHvtuPMo6TuXBD-3" value="CO" style="shape=rhombus;perimeter=rhombusPerimeter;whiteSpace=wrap;html=1;align=center;rotation=0;" vertex="1" parent="1">
          <mxGeometry x="85" y="250" width="70" height="50" as="geometry" />
        </mxCell>
        <mxCell id="FU6x9-xHvtuPMo6TuXBD-4" value="LICHLAMVIEC" style="whiteSpace=wrap;html=1;align=center;fillColor=#FFFF99;" vertex="1" parent="1">
          <mxGeometry x="80" y="330" width="100" height="40" as="geometry" />
        </mxCell>
        <mxCell id="FU6x9-xHvtuPMo6TuXBD-5" value="" style="fontSize=12;html=1;endArrow=ERmandOne;rounded=0;exitX=0.5;exitY=1;exitDx=0;exitDy=0;entryX=0.4;entryY=0;entryDx=0;entryDy=0;entryPerimeter=0;" edge="1" parent="1" source="FU6x9-xHvtuPMo6TuXBD-3" target="FU6x9-xHvtuPMo6TuXBD-4">
          <mxGeometry width="100" height="100" relative="1" as="geometry">
            <mxPoint x="180" y="250" as="sourcePoint" />
            <mxPoint x="120" y="310" as="targetPoint" />
          </mxGeometry>
        </mxCell>
        <mxCell id="FU6x9-xHvtuPMo6TuXBD-6" value="" style="fontSize=12;html=1;endArrow=ERoneToMany;rounded=0;entryX=1;entryY=0.5;entryDx=0;entryDy=0;exitX=0.5;exitY=0;exitDx=0;exitDy=0;" edge="1" parent="1" source="FU6x9-xHvtuPMo6TuXBD-7" target="FU6x9-xHvtuPMo6TuXBD-1">
          <mxGeometry width="100" height="100" relative="1" as="geometry">
            <mxPoint x="240" y="160" as="sourcePoint" />
            <mxPoint x="280" y="150" as="targetPoint" />
            <Array as="points">
              <mxPoint x="240" y="180" />
            </Array>
          </mxGeometry>
        </mxCell>
        <mxCell id="FU6x9-xHvtuPMo6TuXBD-7" value="BAODANH" style="shape=rhombus;perimeter=rhombusPerimeter;whiteSpace=wrap;html=1;align=center;" vertex="1" parent="1">
          <mxGeometry x="200" y="250" width="80" height="50" as="geometry" />
        </mxCell>
        <mxCell id="FU6x9-xHvtuPMo6TuXBD-8" value="" style="fontSize=12;html=1;endArrow=ERmandOne;rounded=0;exitX=0.5;exitY=1;exitDx=0;exitDy=0;entryX=0;entryY=0.25;entryDx=0;entryDy=0;" edge="1" parent="1" source="FU6x9-xHvtuPMo6TuXBD-7" target="FU6x9-xHvtuPMo6TuXBD-13">
          <mxGeometry width="100" height="100" relative="1" as="geometry">
            <mxPoint x="180" y="350" as="sourcePoint" />
            <mxPoint x="180" y="300" as="targetPoint" />
            <Array as="points">
              <mxPoint x="240" y="340" />
              <mxPoint x="240" y="480" />
            </Array>
          </mxGeometry>
        </mxCell>
        <mxCell id="FU6x9-xHvtuPMo6TuXBD-9" value="NGUOIQUANLY" style="whiteSpace=wrap;html=1;align=center;fillColor=#FFFF99;" vertex="1" parent="1">
          <mxGeometry x="80" y="540" width="100" height="40" as="geometry" />
        </mxCell>
        <mxCell id="FU6x9-xHvtuPMo6TuXBD-10" value="" style="fontSize=12;html=1;endArrow=ERoneToMany;rounded=0;entryX=0;entryY=0.5;entryDx=0;entryDy=0;exitX=0.5;exitY=0;exitDx=0;exitDy=0;" edge="1" parent="1" source="FU6x9-xHvtuPMo6TuXBD-11" target="FU6x9-xHvtuPMo6TuXBD-4">
          <mxGeometry width="100" height="100" relative="1" as="geometry">
            <mxPoint x="40" y="450" as="sourcePoint" />
            <mxPoint x="50" y="340" as="targetPoint" />
            <Array as="points">
              <mxPoint x="50" y="370" />
              <mxPoint x="50" y="350" />
            </Array>
          </mxGeometry>
        </mxCell>
        <mxCell id="FU6x9-xHvtuPMo6TuXBD-11" value="TAO" style="shape=rhombus;perimeter=rhombusPerimeter;whiteSpace=wrap;html=1;align=center;" vertex="1" parent="1">
          <mxGeometry x="15" y="420" width="70" height="50" as="geometry" />
        </mxCell>
        <mxCell id="FU6x9-xHvtuPMo6TuXBD-12" value="" style="fontSize=12;html=1;endArrow=ERmandOne;rounded=0;exitX=0.5;exitY=1;exitDx=0;exitDy=0;entryX=0;entryY=0.25;entryDx=0;entryDy=0;" edge="1" parent="1" source="FU6x9-xHvtuPMo6TuXBD-11" target="FU6x9-xHvtuPMo6TuXBD-9">
          <mxGeometry width="100" height="100" relative="1" as="geometry">
            <mxPoint x="130" y="550" as="sourcePoint" />
            <mxPoint x="230" y="450" as="targetPoint" />
            <Array as="points">
              <mxPoint x="50" y="510" />
              <mxPoint x="50" y="550" />
            </Array>
          </mxGeometry>
        </mxCell>
        <mxCell id="FU6x9-xHvtuPMo6TuXBD-13" value="NHANVIEN" style="whiteSpace=wrap;html=1;align=center;fillColor=#FFFF99;" vertex="1" parent="1">
          <mxGeometry x="380" y="470" width="100" height="40" as="geometry" />
        </mxCell>
        <mxCell id="FU6x9-xHvtuPMo6TuXBD-14" value="" style="fontSize=12;html=1;endArrow=ERmandOne;rounded=0;exitX=0;exitY=0.5;exitDx=0;exitDy=0;entryX=0.5;entryY=0;entryDx=0;entryDy=0;" edge="1" parent="1" source="FU6x9-xHvtuPMo6TuXBD-15" target="FU6x9-xHvtuPMo6TuXBD-9">
          <mxGeometry width="100" height="100" relative="1" as="geometry">
            <mxPoint x="250" y="570" as="sourcePoint" />
            <mxPoint x="140" y="550" as="targetPoint" />
            <Array as="points">
              <mxPoint x="130" y="495" />
            </Array>
          </mxGeometry>
        </mxCell>
        <mxCell id="FU6x9-xHvtuPMo6TuXBD-15" value="ISA" style="shape=rhombus;perimeter=rhombusPerimeter;whiteSpace=wrap;html=1;align=center;" vertex="1" parent="1">
          <mxGeometry x="170" y="470" width="55" height="50" as="geometry" />
        </mxCell>
        <mxCell id="FU6x9-xHvtuPMo6TuXBD-16" value="" style="fontSize=12;html=1;endArrow=ERmandOne;rounded=0;exitX=1;exitY=0.5;exitDx=0;exitDy=0;entryX=0;entryY=0.75;entryDx=0;entryDy=0;" edge="1" parent="1" source="FU6x9-xHvtuPMo6TuXBD-15" target="FU6x9-xHvtuPMo6TuXBD-13">
          <mxGeometry width="100" height="100" relative="1" as="geometry">
            <mxPoint x="130" y="550" as="sourcePoint" />
            <mxPoint x="340" y="495" as="targetPoint" />
          </mxGeometry>
        </mxCell>
        <mxCell id="FU6x9-xHvtuPMo6TuXBD-17" value="MUCDO" style="whiteSpace=wrap;html=1;align=center;fillColor=#FFFF99;" vertex="1" parent="1">
          <mxGeometry x="70" y="620" width="100" height="40" as="geometry" />
        </mxCell>
        <mxCell id="FU6x9-xHvtuPMo6TuXBD-19" value="QUYDINH" style="whiteSpace=wrap;html=1;align=center;fillColor=#FFFF99;" vertex="1" parent="1">
          <mxGeometry x="313" y="620" width="100" height="40" as="geometry" />
        </mxCell>
        <mxCell id="FU6x9-xHvtuPMo6TuXBD-20" value="TAO" style="shape=rhombus;perimeter=rhombusPerimeter;whiteSpace=wrap;html=1;align=center;" vertex="1" parent="1">
          <mxGeometry x="220" y="530" width="80" height="60" as="geometry" />
        </mxCell>
        <mxCell id="FU6x9-xHvtuPMo6TuXBD-21" value="" style="edgeStyle=entityRelationEdgeStyle;fontSize=12;html=1;endArrow=ERmandOne;rounded=0;entryX=1;entryY=0.5;entryDx=0;entryDy=0;exitX=0;exitY=0.5;exitDx=0;exitDy=0;" edge="1" parent="1" source="FU6x9-xHvtuPMo6TuXBD-20" target="FU6x9-xHvtuPMo6TuXBD-9">
          <mxGeometry width="100" height="100" relative="1" as="geometry">
            <mxPoint x="320" y="560" as="sourcePoint" />
            <mxPoint x="420" y="460" as="targetPoint" />
          </mxGeometry>
        </mxCell>
        <mxCell id="FU6x9-xHvtuPMo6TuXBD-23" value="" style="fontSize=12;html=1;endArrow=ERoneToMany;rounded=0;exitX=1;exitY=0.5;exitDx=0;exitDy=0;entryX=0.5;entryY=0;entryDx=0;entryDy=0;" edge="1" parent="1" source="FU6x9-xHvtuPMo6TuXBD-20" target="FU6x9-xHvtuPMo6TuXBD-19">
          <mxGeometry width="100" height="100" relative="1" as="geometry">
            <mxPoint x="320" y="560" as="sourcePoint" />
            <mxPoint x="420" y="460" as="targetPoint" />
            <Array as="points">
              <mxPoint x="363" y="560" />
            </Array>
          </mxGeometry>
        </mxCell>
        <mxCell id="FU6x9-xHvtuPMo6TuXBD-24" value="CO" style="shape=rhombus;perimeter=rhombusPerimeter;whiteSpace=wrap;html=1;align=center;" vertex="1" parent="1">
          <mxGeometry x="210" y="620" width="70" height="60" as="geometry" />
        </mxCell>
        <mxCell id="FU6x9-xHvtuPMo6TuXBD-25" value="" style="edgeStyle=entityRelationEdgeStyle;fontSize=12;html=1;endArrow=ERmandOne;rounded=0;entryX=0;entryY=0.75;entryDx=0;entryDy=0;exitX=1;exitY=0.5;exitDx=0;exitDy=0;" edge="1" parent="1" source="FU6x9-xHvtuPMo6TuXBD-24" target="FU6x9-xHvtuPMo6TuXBD-19">
          <mxGeometry width="100" height="100" relative="1" as="geometry">
            <mxPoint x="320" y="560" as="sourcePoint" />
            <mxPoint x="420" y="460" as="targetPoint" />
          </mxGeometry>
        </mxCell>
        <mxCell id="FU6x9-xHvtuPMo6TuXBD-26" value="" style="edgeStyle=entityRelationEdgeStyle;fontSize=12;html=1;endArrow=ERoneToMany;rounded=0;exitX=0;exitY=0.5;exitDx=0;exitDy=0;entryX=1;entryY=0.75;entryDx=0;entryDy=0;" edge="1" parent="1" source="FU6x9-xHvtuPMo6TuXBD-24" target="FU6x9-xHvtuPMo6TuXBD-17">
          <mxGeometry width="100" height="100" relative="1" as="geometry">
            <mxPoint x="320" y="560" as="sourcePoint" />
            <mxPoint x="420" y="460" as="targetPoint" />
          </mxGeometry>
        </mxCell>
        <mxCell id="FU6x9-xHvtuPMo6TuXBD-27" value="THONGBAO" style="whiteSpace=wrap;html=1;align=center;fillColor=#FFFF99;" vertex="1" parent="1">
          <mxGeometry x="360" y="775" width="100" height="40" as="geometry" />
        </mxCell>
        <mxCell id="FU6x9-xHvtuPMo6TuXBD-28" value="" style="fontSize=12;html=1;endArrow=ERmandOne;rounded=0;entryX=0;entryY=0.5;entryDx=0;entryDy=0;exitX=0;exitY=0.5;exitDx=0;exitDy=0;" edge="1" parent="1" source="FU6x9-xHvtuPMo6TuXBD-29" target="FU6x9-xHvtuPMo6TuXBD-9">
          <mxGeometry width="100" height="100" relative="1" as="geometry">
            <mxPoint x="40" y="790" as="sourcePoint" />
            <mxPoint x="420" y="460" as="targetPoint" />
            <Array as="points">
              <mxPoint x="50" y="795" />
              <mxPoint x="50" y="560" />
            </Array>
          </mxGeometry>
        </mxCell>
        <mxCell id="FU6x9-xHvtuPMo6TuXBD-29" value="TAO" style="shape=rhombus;perimeter=rhombusPerimeter;whiteSpace=wrap;html=1;align=center;" vertex="1" parent="1">
          <mxGeometry x="150" y="770" width="80" height="50" as="geometry" />
        </mxCell>
        <mxCell id="FU6x9-xHvtuPMo6TuXBD-30" value="" style="edgeStyle=entityRelationEdgeStyle;fontSize=12;html=1;endArrow=ERoneToMany;rounded=0;exitX=1;exitY=0.5;exitDx=0;exitDy=0;entryX=0;entryY=0.5;entryDx=0;entryDy=0;" edge="1" parent="1" source="FU6x9-xHvtuPMo6TuXBD-29" target="FU6x9-xHvtuPMo6TuXBD-27">
          <mxGeometry width="100" height="100" relative="1" as="geometry">
            <mxPoint x="320" y="560" as="sourcePoint" />
            <mxPoint x="370" y="800" as="targetPoint" />
          </mxGeometry>
        </mxCell>
        <mxCell id="FU6x9-xHvtuPMo6TuXBD-33" value="CT_XUPHAT" style="shape=associativeEntity;whiteSpace=wrap;html=1;align=center;fillColor=#99FFCC;" vertex="1" parent="1">
          <mxGeometry x="413" y="550" width="90" height="50" as="geometry" />
        </mxCell>
        <mxCell id="FU6x9-xHvtuPMo6TuXBD-34" value="" style="fontSize=12;html=1;endArrow=ERoneToMany;rounded=0;entryX=0.581;entryY=0.992;entryDx=0;entryDy=0;entryPerimeter=0;" edge="1" parent="1" target="FU6x9-xHvtuPMo6TuXBD-13">
          <mxGeometry width="100" height="100" relative="1" as="geometry">
            <mxPoint x="438" y="550" as="sourcePoint" />
            <mxPoint x="450" y="580" as="targetPoint" />
            <Array as="points" />
          </mxGeometry>
        </mxCell>
        <mxCell id="FU6x9-xHvtuPMo6TuXBD-35" value="" style="fontSize=12;html=1;endArrow=ERoneToMany;rounded=0;exitX=0.5;exitY=1;exitDx=0;exitDy=0;entryX=0.615;entryY=1.007;entryDx=0;entryDy=0;entryPerimeter=0;" edge="1" parent="1" source="FU6x9-xHvtuPMo6TuXBD-33" target="FU6x9-xHvtuPMo6TuXBD-17">
          <mxGeometry width="100" height="100" relative="1" as="geometry">
            <mxPoint x="350" y="680" as="sourcePoint" />
            <mxPoint x="450" y="580" as="targetPoint" />
            <Array as="points">
              <mxPoint x="460" y="690" />
              <mxPoint x="280" y="690" />
              <mxPoint x="132" y="690" />
            </Array>
          </mxGeometry>
        </mxCell>
        <mxCell id="FU6x9-xHvtuPMo6TuXBD-37" value="" style="fontSize=12;html=1;endArrow=ERoneToMany;rounded=0;entryX=1;entryY=0.75;entryDx=0;entryDy=0;" edge="1" parent="1" target="FU6x9-xHvtuPMo6TuXBD-13">
          <mxGeometry width="100" height="100" relative="1" as="geometry">
            <mxPoint x="520" y="720" as="sourcePoint" />
            <mxPoint x="480" y="490" as="targetPoint" />
            <Array as="points">
              <mxPoint x="520" y="500" />
            </Array>
          </mxGeometry>
        </mxCell>
        <mxCell id="FU6x9-xHvtuPMo6TuXBD-38" value="CT_THONGBAO" style="shape=associativeEntity;whiteSpace=wrap;html=1;align=center;fillColor=#99FFCC;" vertex="1" parent="1">
          <mxGeometry x="440" y="720" width="100" height="45" as="geometry" />
        </mxCell>
        <mxCell id="FU6x9-xHvtuPMo6TuXBD-39" value="" style="fontSize=12;html=1;endArrow=ERoneToMany;rounded=0;exitX=0.6;exitY=1;exitDx=0;exitDy=0;entryX=1;entryY=0.5;entryDx=0;entryDy=0;exitPerimeter=0;" edge="1" parent="1" source="FU6x9-xHvtuPMo6TuXBD-38" target="FU6x9-xHvtuPMo6TuXBD-27">
          <mxGeometry width="100" height="100" relative="1" as="geometry">
            <mxPoint x="350" y="680" as="sourcePoint" />
            <mxPoint x="450" y="590" as="targetPoint" />
            <Array as="points">
              <mxPoint x="500" y="795" />
            </Array>
          </mxGeometry>
        </mxCell>
        <mxCell id="FU6x9-xHvtuPMo6TuXBD-40" value="PHONGBAN" style="whiteSpace=wrap;html=1;align=center;fillColor=#FFFF99;" vertex="1" parent="1">
          <mxGeometry x="80" y="390" width="100" height="40" as="geometry" />
        </mxCell>
        <mxCell id="FU6x9-xHvtuPMo6TuXBD-41" value="QUANLY" style="shape=rhombus;perimeter=rhombusPerimeter;whiteSpace=wrap;html=1;align=center;" vertex="1" parent="1">
          <mxGeometry x="70" y="450" width="70" height="50" as="geometry" />
        </mxCell>
        <mxCell id="FU6x9-xHvtuPMo6TuXBD-42" value="" style="fontSize=12;html=1;endArrow=ERmandOne;rounded=0;exitX=0.5;exitY=0;exitDx=0;exitDy=0;entryX=0.25;entryY=1;entryDx=0;entryDy=0;" edge="1" parent="1" source="FU6x9-xHvtuPMo6TuXBD-41" target="FU6x9-xHvtuPMo6TuXBD-40">
          <mxGeometry width="100" height="100" relative="1" as="geometry">
            <mxPoint x="350" y="560" as="sourcePoint" />
            <mxPoint x="450" y="460" as="targetPoint" />
          </mxGeometry>
        </mxCell>
        <mxCell id="FU6x9-xHvtuPMo6TuXBD-43" value="" style="fontSize=12;html=1;endArrow=ERmandOne;rounded=0;exitX=0.5;exitY=1;exitDx=0;exitDy=0;entryX=0.25;entryY=0;entryDx=0;entryDy=0;" edge="1" parent="1" source="FU6x9-xHvtuPMo6TuXBD-41" target="FU6x9-xHvtuPMo6TuXBD-9">
          <mxGeometry width="100" height="100" relative="1" as="geometry">
            <mxPoint x="350" y="560" as="sourcePoint" />
            <mxPoint x="450" y="460" as="targetPoint" />
          </mxGeometry>
        </mxCell>
        <mxCell id="FU6x9-xHvtuPMo6TuXBD-44" value="CO" style="shape=rhombus;perimeter=rhombusPerimeter;whiteSpace=wrap;html=1;align=center;" vertex="1" parent="1">
          <mxGeometry x="380" y="385" width="70" height="50" as="geometry" />
        </mxCell>
        <mxCell id="FU6x9-xHvtuPMo6TuXBD-45" value="" style="edgeStyle=entityRelationEdgeStyle;fontSize=12;html=1;endArrow=ERmandOne;rounded=0;exitX=0;exitY=0.5;exitDx=0;exitDy=0;entryX=1;entryY=0.5;entryDx=0;entryDy=0;" edge="1" parent="1" source="FU6x9-xHvtuPMo6TuXBD-44" target="FU6x9-xHvtuPMo6TuXBD-40">
          <mxGeometry width="100" height="100" relative="1" as="geometry">
            <mxPoint x="350" y="560" as="sourcePoint" />
            <mxPoint x="450" y="460" as="targetPoint" />
          </mxGeometry>
        </mxCell>
        <mxCell id="FU6x9-xHvtuPMo6TuXBD-46" value="" style="fontSize=12;html=1;endArrow=ERoneToMany;rounded=0;exitX=0.5;exitY=1;exitDx=0;exitDy=0;entryX=0.362;entryY=-0.008;entryDx=0;entryDy=0;entryPerimeter=0;" edge="1" parent="1" source="FU6x9-xHvtuPMo6TuXBD-44" target="FU6x9-xHvtuPMo6TuXBD-13">
          <mxGeometry width="100" height="100" relative="1" as="geometry">
            <mxPoint x="350" y="560" as="sourcePoint" />
            <mxPoint x="415" y="467" as="targetPoint" />
          </mxGeometry>
        </mxCell>
        <mxCell id="FU6x9-xHvtuPMo6TuXBD-47" value="CT_LICHLAMVIEC" style="shape=associativeEntity;whiteSpace=wrap;html=1;align=center;fillColor=#99FFCC;" vertex="1" parent="1">
          <mxGeometry x="413" y="330" width="110" height="40" as="geometry" />
        </mxCell>
        <mxCell id="FU6x9-xHvtuPMo6TuXBD-48" value="" style="fontSize=12;html=1;endArrow=ERoneToMany;rounded=0;exitX=0;exitY=0.5;exitDx=0;exitDy=0;entryX=1;entryY=0.5;entryDx=0;entryDy=0;" edge="1" parent="1" source="FU6x9-xHvtuPMo6TuXBD-47" target="FU6x9-xHvtuPMo6TuXBD-4">
          <mxGeometry width="100" height="100" relative="1" as="geometry">
            <mxPoint x="350" y="450" as="sourcePoint" />
            <mxPoint x="450" y="350" as="targetPoint" />
          </mxGeometry>
        </mxCell>
        <mxCell id="FU6x9-xHvtuPMo6TuXBD-49" value="" style="fontSize=12;html=1;endArrow=ERoneToMany;rounded=0;exitX=0.5;exitY=1;exitDx=0;exitDy=0;entryX=0.903;entryY=0.012;entryDx=0;entryDy=0;entryPerimeter=0;" edge="1" parent="1" source="FU6x9-xHvtuPMo6TuXBD-47" target="FU6x9-xHvtuPMo6TuXBD-13">
          <mxGeometry width="100" height="100" relative="1" as="geometry">
            <mxPoint x="350" y="450" as="sourcePoint" />
            <mxPoint x="450" y="350" as="targetPoint" />
          </mxGeometry>
        </mxCell>
        <mxCell id="FU6x9-xHvtuPMo6TuXBD-50" value="HOPDONGLAODONG" style="whiteSpace=wrap;html=1;align=center;fillColor=#FFFF99;" vertex="1" parent="1">
          <mxGeometry x="580" y="390" width="130" height="50" as="geometry" />
        </mxCell>
        <mxCell id="FU6x9-xHvtuPMo6TuXBD-51" value="TAIKHOAN" style="whiteSpace=wrap;html=1;align=center;fillColor=#FFFF99;" vertex="1" parent="1">
          <mxGeometry x="570" y="540" width="100" height="40" as="geometry" />
        </mxCell>
        <mxCell id="FU6x9-xHvtuPMo6TuXBD-52" value="QUYEN" style="whiteSpace=wrap;html=1;align=center;fillColor=#FFFF99;" vertex="1" parent="1">
          <mxGeometry x="580" y="680" width="100" height="40" as="geometry" />
        </mxCell>
        <mxCell id="FU6x9-xHvtuPMo6TuXBD-53" value="CO" style="shape=rhombus;perimeter=rhombusPerimeter;whiteSpace=wrap;html=1;align=center;" vertex="1" parent="1">
          <mxGeometry x="490" y="390" width="60" height="50" as="geometry" />
        </mxCell>
        <mxCell id="FU6x9-xHvtuPMo6TuXBD-54" value="" style="fontSize=12;html=1;endArrow=ERmandOne;rounded=0;exitX=0;exitY=0.5;exitDx=0;exitDy=0;entryX=0.75;entryY=0;entryDx=0;entryDy=0;" edge="1" parent="1" source="FU6x9-xHvtuPMo6TuXBD-53" target="FU6x9-xHvtuPMo6TuXBD-13">
          <mxGeometry width="100" height="100" relative="1" as="geometry">
            <mxPoint x="350" y="580" as="sourcePoint" />
            <mxPoint x="450" y="480" as="targetPoint" />
            <Array as="points">
              <mxPoint x="455" y="415" />
            </Array>
          </mxGeometry>
        </mxCell>
        <mxCell id="FU6x9-xHvtuPMo6TuXBD-56" value="" style="fontSize=12;html=1;endArrow=ERmandOne;rounded=0;exitX=1;exitY=0.5;exitDx=0;exitDy=0;entryX=0;entryY=0.5;entryDx=0;entryDy=0;" edge="1" parent="1" source="FU6x9-xHvtuPMo6TuXBD-53" target="FU6x9-xHvtuPMo6TuXBD-50">
          <mxGeometry width="100" height="100" relative="1" as="geometry">
            <mxPoint x="350" y="580" as="sourcePoint" />
            <mxPoint x="450" y="480" as="targetPoint" />
          </mxGeometry>
        </mxCell>
        <mxCell id="FU6x9-xHvtuPMo6TuXBD-57" value="CO" style="shape=rhombus;perimeter=rhombusPerimeter;whiteSpace=wrap;html=1;align=center;" vertex="1" parent="1">
          <mxGeometry x="620" y="460" width="60" height="50" as="geometry" />
        </mxCell>
        <mxCell id="FU6x9-xHvtuPMo6TuXBD-58" value="" style="fontSize=12;html=1;endArrow=ERmandOne;rounded=0;exitX=0;exitY=0.5;exitDx=0;exitDy=0;" edge="1" parent="1" source="FU6x9-xHvtuPMo6TuXBD-57">
          <mxGeometry width="100" height="100" relative="1" as="geometry">
            <mxPoint x="580" y="500" as="sourcePoint" />
            <mxPoint x="480" y="485" as="targetPoint" />
          </mxGeometry>
        </mxCell>
        <mxCell id="FU6x9-xHvtuPMo6TuXBD-59" value="" style="fontSize=12;html=1;endArrow=ERmandOne;rounded=0;exitX=0.5;exitY=1;exitDx=0;exitDy=0;" edge="1" parent="1" source="FU6x9-xHvtuPMo6TuXBD-57">
          <mxGeometry width="100" height="100" relative="1" as="geometry">
            <mxPoint x="350" y="580" as="sourcePoint" />
            <mxPoint x="650" y="540" as="targetPoint" />
          </mxGeometry>
        </mxCell>
        <mxCell id="FU6x9-xHvtuPMo6TuXBD-60" value="CO" style="shape=rhombus;perimeter=rhombusPerimeter;whiteSpace=wrap;html=1;align=center;" vertex="1" parent="1">
          <mxGeometry x="585" y="610" width="70" height="40" as="geometry" />
        </mxCell>
        <mxCell id="FU6x9-xHvtuPMo6TuXBD-61" value="" style="fontSize=12;html=1;endArrow=ERmandOne;rounded=0;exitX=0.5;exitY=1;exitDx=0;exitDy=0;" edge="1" parent="1" source="FU6x9-xHvtuPMo6TuXBD-60">
          <mxGeometry width="100" height="100" relative="1" as="geometry">
            <mxPoint x="350" y="700" as="sourcePoint" />
            <mxPoint x="620" y="680" as="targetPoint" />
          </mxGeometry>
        </mxCell>
        <mxCell id="FU6x9-xHvtuPMo6TuXBD-62" value="" style="fontSize=12;html=1;endArrow=ERoneToMany;rounded=0;exitX=0.5;exitY=0;exitDx=0;exitDy=0;entryX=0.5;entryY=1;entryDx=0;entryDy=0;" edge="1" parent="1" source="FU6x9-xHvtuPMo6TuXBD-60" target="FU6x9-xHvtuPMo6TuXBD-51">
          <mxGeometry width="100" height="100" relative="1" as="geometry">
            <mxPoint x="350" y="700" as="sourcePoint" />
            <mxPoint x="450" y="600" as="targetPoint" />
          </mxGeometry>
        </mxCell>
        <mxCell id="FU6x9-xHvtuPMo6TuXBD-63" value="LUONG" style="rounded=1;arcSize=10;whiteSpace=wrap;html=1;align=center;fillColor=#FFFF99;" vertex="1" parent="1">
          <mxGeometry x="727" y="590" width="100" height="40" as="geometry" />
        </mxCell>
        <mxCell id="FU6x9-xHvtuPMo6TuXBD-64" value="CO" style="shape=rhombus;perimeter=rhombusPerimeter;whiteSpace=wrap;html=1;align=center;" vertex="1" parent="1">
          <mxGeometry x="737" y="390" width="90" height="50" as="geometry" />
        </mxCell>
        <mxCell id="FU6x9-xHvtuPMo6TuXBD-65" value="" style="edgeStyle=entityRelationEdgeStyle;fontSize=12;html=1;endArrow=ERoneToMany;rounded=0;exitX=0;exitY=0.5;exitDx=0;exitDy=0;entryX=1;entryY=0.5;entryDx=0;entryDy=0;" edge="1" parent="1" source="FU6x9-xHvtuPMo6TuXBD-64" target="FU6x9-xHvtuPMo6TuXBD-50">
          <mxGeometry width="100" height="100" relative="1" as="geometry">
            <mxPoint x="350" y="580" as="sourcePoint" />
            <mxPoint x="450" y="480" as="targetPoint" />
          </mxGeometry>
        </mxCell>
        <mxCell id="FU6x9-xHvtuPMo6TuXBD-66" value="" style="fontSize=12;html=1;endArrow=ERmandOne;rounded=0;exitX=0.5;exitY=1;exitDx=0;exitDy=0;" edge="1" parent="1" source="FU6x9-xHvtuPMo6TuXBD-64">
          <mxGeometry width="100" height="100" relative="1" as="geometry">
            <mxPoint x="350" y="580" as="sourcePoint" />
            <mxPoint x="782" y="590" as="targetPoint" />
          </mxGeometry>
        </mxCell>
        <mxCell id="FU6x9-xHvtuPMo6TuXBD-67" value="CT_LUONG" style="shape=associativeEntity;whiteSpace=wrap;html=1;align=center;fillColor=#99FFCC;" vertex="1" parent="1">
          <mxGeometry x="720" y="725" width="100" height="50" as="geometry" />
        </mxCell>
        <mxCell id="FU6x9-xHvtuPMo6TuXBD-68" value="" style="fontSize=12;html=1;endArrow=ERoneToMany;rounded=0;entryX=0.5;entryY=1;entryDx=0;entryDy=0;" edge="1" parent="1" target="FU6x9-xHvtuPMo6TuXBD-63">
          <mxGeometry width="100" height="100" relative="1" as="geometry">
            <mxPoint x="777" y="720" as="sourcePoint" />
            <mxPoint x="450" y="610" as="targetPoint" />
          </mxGeometry>
        </mxCell>
        <mxCell id="FU6x9-xHvtuPMo6TuXBD-70" value="" style="fontSize=12;html=1;endArrow=ERoneToMany;rounded=0;entryX=1;entryY=0.5;entryDx=0;entryDy=0;exitX=0;exitY=0.25;exitDx=0;exitDy=0;" edge="1" parent="1" source="FU6x9-xHvtuPMo6TuXBD-67" target="FU6x9-xHvtuPMo6TuXBD-13">
          <mxGeometry width="100" height="100" relative="1" as="geometry">
            <mxPoint x="710" y="740" as="sourcePoint" />
            <mxPoint x="450" y="610" as="targetPoint" />
            <Array as="points">
              <mxPoint x="580" y="740" />
              <mxPoint x="550" y="740" />
              <mxPoint x="550" y="490" />
            </Array>
          </mxGeometry>
        </mxCell>
      </root>
    </mxGraphModel>
  </diagram>
</mxfile>
